HIERARCHY
ROOT hip
{
	OFFSET 0.000000 0.000000 0.000000
	CHANNELS 6 Xposition Yposition Zposition Zrotation Yrotation Xrotation 
	JOINT lhipjoint
	{
		OFFSET 0.000000 0.000000 0.000000
		CHANNELS 3 Zrotation Yrotation Xrotation
		JOINT lfemur
		{
			OFFSET 1.363060 -1.794630 0.839290
			CHANNELS 3 Zrotation Yrotation Xrotation
			JOINT ltibia
			{
				OFFSET 2.448110 -6.726130 0.000000
				CHANNELS 3 Zrotation Yrotation Xrotation
				JOINT lfoot
				{
					OFFSET 2.562200 -7.039590 0.000000
					CHANNELS 3 Zrotation Yrotation Xrotation
					JOINT ltoes
					{
						OFFSET 0.157640 -0.433110 2.322550
						CHANNELS 3 Zrotation Yrotation Xrotation
						End Site
						{
							OFFSET 0.000000 0.000000 0.000000
						}
					}
				}
			}
		}
	}
	JOINT rhipjoint
	{
		OFFSET 0.000000 0.000000 0.000000
		CHANNELS 3 Zrotation Yrotation Xrotation
		JOINT rfemur
		{
			OFFSET -1.305520 -1.794630 0.839290
			CHANNELS 3 Zrotation Yrotation Xrotation
			JOINT rtibia
			{
				OFFSET -2.542530 -6.985550 0.000000
				CHANNELS 3 Zrotation Yrotation Xrotation
				JOINT rfoot
				{
					OFFSET -2.568260 -7.056230 0.000000
					CHANNELS 3 Zrotation Yrotation Xrotation
					JOINT rtoes
					{
						OFFSET -0.164730 -0.452590 2.363150
						CHANNELS 3 Zrotation Yrotation Xrotation
						End Site
						{
							OFFSET 0.000000 0.000000 0.000000
						}
					}
				}
			}
		}
	}
	JOINT lowerback
	{
		OFFSET 0.000000 0.000000 0.000000
		CHANNELS 3 Zrotation Yrotation Xrotation
		JOINT upperback
		{
			OFFSET 0.028270 2.035590 -0.193380
			CHANNELS 3 Zrotation Yrotation Xrotation
			JOINT thorax
			{
				OFFSET 0.056720 2.048850 -0.042750
				CHANNELS 3 Zrotation Yrotation Xrotation
				JOINT lowerneck
				{
					OFFSET 0.000000 0.000000 0.000000
					CHANNELS 3 Zrotation Yrotation Xrotation
					JOINT upperneck
					{
						OFFSET -0.054170 1.746240 0.172020
						CHANNELS 3 Zrotation Yrotation Xrotation
						JOINT head
						{
							OFFSET 0.104070 1.761360 -0.123970
							CHANNELS 3 Zrotation Yrotation Xrotation
							End Site
							{
								OFFSET 0.000000 0.000000 0.000000
							}
						}
					}
				}
				JOINT lclavicle
				{
					OFFSET 0.000000 0.000000 0.000000
					CHANNELS 3 Zrotation Yrotation Xrotation
					JOINT lhumerus
					{
						OFFSET 3.362410 1.200890 -0.311210
						CHANNELS 3 Zrotation Yrotation Xrotation
						JOINT lradius
						{
							OFFSET 4.983000 -0.000000 -0.000000
							CHANNELS 3 Zrotation Yrotation Xrotation
							JOINT lwrist
							{
								OFFSET 3.483560 -0.000000 -0.000000
								CHANNELS 3 Zrotation Yrotation Xrotation
								JOINT lhand
								{
									OFFSET 0.000000 0.000000 0.000000
									CHANNELS 3 Zrotation Yrotation Xrotation
									JOINT lfingers
									{
										OFFSET 0.715260 -0.000000 -0.000000
										CHANNELS 3 Zrotation Yrotation Xrotation
										End Site
										{
											OFFSET 0.000000 0.000000 0.000000
										}
									}
								}
								JOINT lthumb
								{
									OFFSET 0.000000 0.000000 0.000000
									CHANNELS 3 Zrotation Yrotation Xrotation
									End Site
									{
										OFFSET 0.000000 0.000000 0.000000
									}
								}
							}
						}
					}
				}
				JOINT rclavicle
				{
					OFFSET 0.000000 0.000000 0.000000
					CHANNELS 3 Zrotation Yrotation Xrotation
					JOINT rhumerus
					{
						OFFSET -3.136600 1.374050 -0.404650
						CHANNELS 3 Zrotation Yrotation Xrotation
						JOINT rradius
						{
							OFFSET -5.241900 -0.000000 -0.000000
							CHANNELS 3 Zrotation Yrotation Xrotation
							JOINT rwrist
							{
								OFFSET -3.444170 -0.000000 -0.000000
								CHANNELS 3 Zrotation Yrotation Xrotation
								JOINT rhand
								{
									OFFSET 0.000000 0.000000 0.000000
									CHANNELS 3 Zrotation Yrotation Xrotation
									JOINT rfingers
									{
										OFFSET -0.622530 -0.000000 -0.000000
										CHANNELS 3 Zrotation Yrotation Xrotation
										End Site
										{
											OFFSET 0.000000 0.000000 0.000000
										}
									}
								}
								JOINT rthumb
								{
									OFFSET 0.000000 0.000000 0.000000
									CHANNELS 3 Zrotation Yrotation Xrotation
									End Site
									{
										OFFSET 0.000000 0.000000 0.000000
									}
								}
							}
						}
					}
				}
			}
		}
	}
}
MOTION
Frames: 5
Frame Time: 0.008333
-0.752725 16.899994 2.423806 -172.270844 -10.442125 -175.798772 -4.187342 -2.096005 -1.529095 -7.520448 -10.918792 -20.610014 6.213410 13.754157 42.537677 -1.664068 -26.244969 0.863046 0.375700 3.937000 10.899400 3.744061 2.445423 -1.416168 19.683482 3.303553 -23.013563 -13.596374 -18.741386 67.810609 -0.754552 10.933882 -3.375851 -0.998800 6.359900 -17.832400 -5.977232 7.727352 14.908498 -0.967576 7.709025 -1.967497 -6.096446 2.635178 9.897883 -7.736315 -6.112455 -9.873164 15.808439 -10.726627 9.460123 4.680500 -5.028800 2.345500 -7.065617 -4.348430 3.643558 -57.353992 -0.061761 42.860672 31.745587 -42.913374 -12.480061 0.120319 1.227139 14.153216 23.381793 -8.484401 -4.247100 -7.125000 0.000000 0.000000 -2.426300 19.314300 1.488600 8.384976 2.031706 4.005487 68.150486 2.881509 28.455314 -69.506362 61.464886 -34.055679 -0.353139 -2.992049 -4.643936 -16.284500 9.882239 -3.628800 7.125000 0.000000 0.000000 7.985600 -16.567200 5.430600 
-0.741976 16.887273 2.440646 -172.272671 -10.313133 -175.267214 -4.209020 -2.032917 -1.492029 -7.344903 -11.895499 -21.195836 6.337728 13.740293 42.945437 -1.578223 -25.970355 0.422662 0.406200 4.091700 11.334800 3.693334 2.540058 -1.542251 19.960967 2.765992 -21.906029 -12.743309 -18.486775 65.004816 -0.732993 11.216548 -3.820936 -1.088600 6.631000 -18.626500 -6.156036 7.954758 15.036558 -1.034787 7.967757 -1.968326 -6.177234 2.744363 9.836960 -7.909259 -6.231241 -9.862017 16.003660 -10.888403 9.154042 4.792300 -5.120100 2.305100 -7.099558 -4.385765 3.650351 -57.144415 0.110278 41.722918 32.296941 -43.310574 -12.911146 0.116384 1.247163 14.133972 24.073907 -8.747911 -4.516700 -7.125000 0.000000 0.000000 -1.939900 18.940700 1.205900 8.407965 2.014666 3.977900 67.817957 2.864707 28.519995 -71.385931 61.571297 -35.396693 -0.373731 -3.010097 -4.680250 -16.495866 9.871471 -3.677800 7.125000 0.000000 0.000000 7.855600 -16.540500 5.345000 
-0.731047 16.872045 2.456323 -172.290100 -10.175732 -174.736541 -4.231383 -1.970982 -1.456952 -7.184457 -12.815779 -21.786301 6.461104 13.728584 43.353601 -1.489694 -25.671838 0.001286 0.454600 4.325400 11.993900 3.643741 2.633132 -1.666779 20.190251 2.172692 -20.861596 -11.899310 -18.178296 62.165320 -0.710135 11.712744 -4.234449 -1.087100 6.626400 -18.613200 -6.376623 8.182694 15.121791 -1.095994 8.231963 -1.961843 -6.194637 2.847976 9.807720 -8.128874 -6.344831 -9.760981 16.180405 -11.031829 8.728902 4.914100 -5.211500 2.201000 -7.128780 -4.426018 3.663693 -57.043681 0.203784 40.451607 32.715323 -43.608694 -13.267657 0.114406 1.270342 14.252085 24.835321 -9.031505 -4.822600 -7.125000 0.000000 0.000000 -1.408100 18.528700 0.887900 8.437772 1.987084 3.950063 67.413268 2.824263 28.659942 -73.196839 61.621611 -36.712461 -0.384027 -3.026282 -4.935946 -16.712264 9.844417 -3.722400 7.125000 0.000000 0.000000 7.722700 -16.533600 5.254100 
-0.720656 16.856817 2.471103 -172.311552 -10.038132 -174.225130 -4.254485 -1.909926 -1.425529 -7.031668 -13.718638 -22.355521 6.583293 13.720699 43.763478 -1.389272 -25.320282 -0.488832 0.502300 4.543400 12.610600 3.592616 2.725263 -1.791053 20.391766 1.546587 -19.872770 -11.088731 -17.827726 59.366423 -0.688328 12.340148 -4.739061 -0.992600 6.340900 -17.776900 -6.637386 8.389776 15.162175 -1.145109 8.476443 -1.945512 -6.130093 2.931051 9.821333 -8.389176 -6.451479 -9.581280 16.328836 -11.157369 8.221776 5.039200 -5.300800 2.045100 -7.150083 -4.466295 3.682602 -57.086341 0.251901 38.953670 33.046369 -43.845258 -13.580941 0.115850 1.296789 14.489302 25.646044 -9.374769 -5.182000 -7.125000 0.000000 0.000000 -0.849700 18.034400 0.544900 8.475998 1.947947 3.923669 66.920991 2.797353 28.857057 -74.804602 61.621574 -37.903464 -0.397971 -3.027179 -5.097614 -16.864219 9.832972 -3.751400 7.125000 0.000000 0.000000 7.633000 -16.532400 5.192100 
-0.710355 16.841768 2.484898 -172.337495 -9.914806 -173.728132 -4.278697 -1.850028 -1.396425 -6.882680 -14.601286 -22.908185 6.704268 13.715402 44.173093 -1.285592 -24.960293 -1.025818 0.531100 4.670100 12.970000 3.539394 2.816989 -1.915094 20.576673 0.903129 -18.921406 -10.327111 -17.449306 56.663209 -0.670917 13.068990 -5.401443 -0.849400 5.878100 -16.431100 -6.926199 8.580792 15.167282 -1.182683 8.710867 -1.924517 -5.987889 3.001852 9.856218 -8.714497 -6.564017 -9.359907 16.506156 -11.297245 7.678867 5.188200 -5.400100 1.874600 -7.160936 -4.511137 3.703820 -57.303319 0.334640 37.235355 33.376096 -44.080919 -13.903204 0.123073 1.325228 14.991232 26.467882 -9.743781 -5.573500 -7.125000 0.000000 0.000000 -0.290400 17.499100 0.189600 8.518867 1.901321 3.895921 66.350764 2.751921 29.087909 -76.165868 61.587501 -38.941398 -0.410852 -3.018844 -5.156045 -17.025108 9.801714 -3.776200 7.125000 0.000000 0.000000 7.532000 -16.559500 5.117700 
